<?xml version="1.0" encoding="UTF-8"?><svg id="Layer_1" xmlns="http://www.w3.org/2000/svg" viewBox="0 0 513.1 130.15"><defs><style>.cls-1{fill:#ed1c24;}</style></defs><path class="cls-1" d="M149.97,32.04c-23.93,2.3-49.26,6.53-69.91,19.59-1.33.84-8.16,5.71-8.61,6.39-.85,1.28-.56,1.65.51,2.54l44.49,8.52,5.19-5.95c2.76-.9,4.14,2.29,7.57,1.75,2.44-.38,7-3.26,9.99-4.13,6.01-1.74,19.42-3.8,23.98-6.75,2.5-1.62,3.91-9.7,9.64-4.5-1.34,6.88-5.87,13.47-5.34,20.53,4.59-4.45,9.25-10.75,10.52-17,4.95-1.86,4.33,7.7,7.47,6.99.41-.09,5.19-5.04,6.03-5.98,2.01-2.24,7.4-12.91,10.49-7.26,4.51,8.24-2.67,36.06-14.51,35.34-7.89-.48-3.78-11.06-4.5-16.09-1.89-1.92-9.39,8.17-11.52,9.97-3.77,3.17-10.48,8.82-15.03,4.08-4.91-5.12.93-12.22.55-18.05-7.08-2.64-35.23,16.5-34.97,21.5,4.14,3.92,10.17-1.44,14.97.99l-17.08,5.15-14.04,40.22c-1.16.73-4.93-.36-5.9-1.35-4.79-4.86,7.56-29.69,8.02-36.52-30.34,2.81-63.59,14.86-94.24,10.73-5.55-.75-15.05-4.04-13.58-11.01,2.33-11.04,39.74-26.1,50.82-27.74,1.85-2.58-10.39-7.62-12.02-9.46-7.26-8.16,5.8-14.61,12.04-17.02,17.85-6.88,70.34-12.45,89.36-10.39,1.01.11,12.5,2.24,9.62,4.87ZM86.97,33.06c-8.89,1.56-18.3,3.37-26.67,6.81-3.53,1.45-10.38,4.12-10.83,8.1,5.4,13.45,11.44,3.13,18.59-2.33l18.91-12.58ZM48.73,72.31c-5.83.69-14.93,4.14-20.43,6.56-3,1.32-16.38,7.94-16.38,10.68l1.04,2.01c4.53,4.26,33.15,2.13,40.51,1.47,14.18-1.26,40.46-4.57,53.73-8.27,5.07-1.42,10.4-6.96,3.33-7.77-6.17-.7-13.62.51-20.04.04-12.58-.92-29.74-6.15-41.76-4.73Z"/><path class="cls-1" d="M332.97,19.04c19.14.33,39.43.55,58.38,3.13,1.52.21,6.03.49,6.62,1.86l-68.76,2.24-18.23,42.77c13.9-1.55,32.07-19.12,46.03-15.52,9.08,2.34,7.15,6.9,5.97,14.52.95,1.01,7.23-4.05,8.47-5.02,2.73-2.13,9.73-10.3,12.01-10.53,3.22-.33,3.33,2.55,4.99,2.67,3.07.22,7.12-2.12,9.54-.64l2.99,8.53c10.84-2.75,17.65-18.82,23.61.08,4.62.97,9.7-6.47,13.99-7.8,20.4,2.96,41.33.95,61.77,3.84,2.98.42,8.78,1.47,11.35,2.65,1.35.62,1.58.09,1.27,2.23-17.74.71-35.77-.81-53.54-.03-4.84.21-13.33.55-17.72,1.28-9.77,1.64-15.92,18.74-24.26,18.36s-5.93-14.52-4.99-19.61l-24.2,12.79c-2.05.35-6.44.98-7.21-1.43l1.43-11.35c-5.18,1.19-24.53,19.64-28.41,16.9-.75-.53-1.04-3.74-.71-4.93.4-1.41,5.38-5.32,2.09-5.98-4.97-1-21.03,14.12-28.48,11,.06-1.38-.29-3.04.17-4.33,1.26-3.55,25.75-10.26,30.35-13.65,1.1-.81,2.01-1.5.5-2.53-6.35-3.52-25.96,7.31-32.34,10.69s-22.51,17.2-25.22,2.87c-2.13-11.23,1.34-10.84,5.04-19.06,4.26-9.47,7.43-19.44,11.51-28.98-10.84-.36-21.67,1.86-32.54,1.03-1.79-.14-3.24.28-4.44-1.54,1.68-2.5,4.17-2.57,6.78-3.2,10.81-2.61,22.76-1.28,33.57-4.21C322.85,14.35,326.75.46,331.53,0c9.88-.07-.08,17.5,1.45,19.04Z"/><path class="cls-1" d="M240.99,59.04c6.35-2.15,6.67-10.68,12.48-11.99,5.26,1.57-6.04,15.82-6.49,18.98,5.14.88,16.06-13.98,18.99-11.99,1.62,2.4-2.53,8.39,1.5,8.77,1.22.12,11.49-9.29,14.15-10.63,2.45-1.23,9.61-3.67,11.75-2.08,2.54,1.89,2.57,11.64.62,14.42-6.37,9.1-22.37,18.65-25.49,1.54-7.46,2.08-23.74,14.2-30.64,13.47s-2.29-12.58-7.31-11.45c-1.01.23-9.44,9.83-13.25,11.77-13.01,6.64-9.98-4.46-8.04-13.04,1.83-8.12,5.8-16.31,6.73-24.78,11.09,1.56,2.52,21.08,1,28.51.29,1.07,2.33.53,3.02.02,1.17-.84,11.2-21.52,12.45-24.55,2.31-5.6,11.89-38.99,17.02-38.97.74.82,2.06,1.54,2.33,2.68.66,2.74-8.9,31.49-10.16,37.47-.86,4.1-2.37,7.78-.66,11.82ZM275.98,68.04c5.84,3.71,19.6-8.82,16.55-13.02-4.02-5.54-18.26,6.61-16.55,13.02Z"/><path class="cls-1" d="M174.49,11.05c9.24,1.45,1.34,24.57-3.99,22.99-1.33-.39-1.53-2.07-1.48-3.35.1-2.57,3.82-19.25,5.46-19.64Z"/></svg>